<?xml version="1.0" standalone="no"?>
<!DOCTYPE svg PUBLIC "-//W3C//DTD SVG 20010904//EN"
 "http://www.w3.org/TR/2001/REC-SVG-20010904/DTD/svg10.dtd">
<svg version="1.0" xmlns="http://www.w3.org/2000/svg"
 width="2048.000000pt" height="2048.000000pt" viewBox="0 0 2048.000000 2048.000000"
 preserveAspectRatio="xMidYMid meet">
<metadata>
Created by potrace 1.11, written by Peter Selinger 2001-2013
</metadata>
<g transform="translate(0.000000,2048.000000) scale(0.100000,-0.100000)"
fill="#000000" stroke="none">
<path d="M1020 10180 l0 -9270 9270 0 9270 0 0 9270 0 9270 -9270 0 -9270 0 0
-9270z m17940 0 l0 -8670 -8670 0 -8670 0 0 8670 0 8670 8670 0 8670 0 0
-8670z"/>
<path d="M2530 10180 l0 -7760 7760 0 7760 0 0 7760 0 7760 -7760 0 -7760 0 0
-7760z m14920 0 l0 -7160 -7160 0 -7160 0 0 7160 0 7160 7160 0 7160 0 0
-7160z"/>
<path d="M3970 10185 l0 -6315 6315 0 6315 0 0 6315 0 6315 -6315 0 -6315 0 0
-6315z m12030 0 l0 -5715 -5715 0 -5715 0 0 5715 0 5715 5715 0 5715 0 0
-5715z"/>
<path d="M5450 10190 l0 -4830 4830 0 4830 0 0 4830 0 4830 -4830 0 -4830 0 0
-4830z m9060 0 l0 -4230 -4230 0 -4230 0 0 4230 0 4230 4230 0 4230 0 0 -4230z"/>
<path d="M6840 10190 l0 -3440 3440 0 3440 0 0 3440 0 3440 -3440 0 -3440 0 0
-3440z m6280 0 l0 -2840 -2840 0 -2840 0 0 2840 0 2840 2840 0 2840 0 0 -2840z"/>
<path d="M8300 10190 l0 -1980 1980 0 1980 0 0 1980 0 1980 -1980 0 -1980 0 0
-1980z m3360 0 l0 -1380 -1380 0 -1380 0 0 1380 0 1380 1380 0 1380 0 0 -1380z"/>
<path d="M9710 10185 l0 -595 595 0 595 0 0 595 0 595 -595 0 -595 0 0 -595z"/>
</g>
</svg>
